<mxfile host="65bd71144e" scale="2" border="0">
    <diagram id="C5RBs43oDa-KdzZeNtuy" name="Page-1">
        <mxGraphModel dx="548" dy="414" grid="1" gridSize="10" guides="1" tooltips="1" connect="1" arrows="1" fold="1" page="1" pageScale="1" pageWidth="827" pageHeight="1169" background="none" math="0" shadow="0">
            <root>
                <mxCell id="WIyWlLk6GJQsqaUBKTNV-0"/>
                <mxCell id="WIyWlLk6GJQsqaUBKTNV-1" parent="WIyWlLk6GJQsqaUBKTNV-0"/>
                <mxCell id="5" style="edgeStyle=none;html=1;entryX=0;entryY=0.5;entryDx=0;entryDy=0;" edge="1" parent="WIyWlLk6GJQsqaUBKTNV-1" source="SO8_TiExcs52Kjs4034y-3" target="SO8_TiExcs52Kjs4034y-8">
                    <mxGeometry relative="1" as="geometry"/>
                </mxCell>
                <mxCell id="7" value="改进基频断裂" style="edgeLabel;html=1;align=center;verticalAlign=middle;resizable=0;points=[];labelBackgroundColor=none;" vertex="1" connectable="0" parent="5">
                    <mxGeometry x="-0.3444" y="-3" relative="1" as="geometry">
                        <mxPoint x="14" y="-12" as="offset"/>
                    </mxGeometry>
                </mxCell>
                <mxCell id="SO8_TiExcs52Kjs4034y-3" value="&lt;h4 style=&quot;line-height: 1.2&quot;&gt;&lt;font face=&quot;Helvetica&quot;&gt;OLA算法&lt;/font&gt;&lt;/h4&gt;" style="rounded=1;whiteSpace=wrap;html=1;strokeWidth=2;shadow=0;sketch=0;glass=0;fontFamily=Times New Roman;labelBackgroundColor=none;rotation=0;flipH=0;flipV=0;" parent="WIyWlLk6GJQsqaUBKTNV-1" vertex="1">
                    <mxGeometry x="10" y="210" width="80" height="30" as="geometry"/>
                </mxCell>
                <mxCell id="6" style="edgeStyle=none;html=1;entryX=0;entryY=0.5;entryDx=0;entryDy=0;" edge="1" parent="WIyWlLk6GJQsqaUBKTNV-1" source="SO8_TiExcs52Kjs4034y-8" target="IXs5qKIsQq4nm_fLcoOc-0">
                    <mxGeometry relative="1" as="geometry"/>
                </mxCell>
                <mxCell id="8" value="改进规整误差" style="edgeLabel;html=1;align=center;verticalAlign=middle;resizable=0;points=[];labelBackgroundColor=none;" vertex="1" connectable="0" parent="6">
                    <mxGeometry x="-0.3222" y="-1" relative="1" as="geometry">
                        <mxPoint x="13" y="-10" as="offset"/>
                    </mxGeometry>
                </mxCell>
                <mxCell id="SO8_TiExcs52Kjs4034y-8" value="&lt;h4 style=&quot;line-height: 1.2&quot;&gt;&lt;font face=&quot;Helvetica&quot;&gt;SOLA算法&lt;/font&gt;&lt;/h4&gt;" style="rounded=1;whiteSpace=wrap;html=1;strokeWidth=2;shadow=0;sketch=0;glass=0;fontFamily=Times New Roman;labelBackgroundColor=none;rotation=0;flipH=0;flipV=0;" parent="WIyWlLk6GJQsqaUBKTNV-1" vertex="1">
                    <mxGeometry x="190" y="210" width="80" height="30" as="geometry"/>
                </mxCell>
                <mxCell id="SO8_TiExcs52Kjs4034y-9" value="&lt;b&gt;Output&lt;/b&gt;" style="rounded=0;whiteSpace=wrap;html=1;strokeWidth=2;" parent="WIyWlLk6GJQsqaUBKTNV-1" vertex="1">
                    <mxGeometry x="380.5" y="260" width="66" height="20" as="geometry"/>
                </mxCell>
                <mxCell id="2" style="edgeStyle=none;html=1;entryX=0.5;entryY=0;entryDx=0;entryDy=0;" edge="1" parent="WIyWlLk6GJQsqaUBKTNV-1" source="SO8_TiExcs52Kjs4034y-12" target="IXs5qKIsQq4nm_fLcoOc-0">
                    <mxGeometry relative="1" as="geometry"/>
                </mxCell>
                <mxCell id="SO8_TiExcs52Kjs4034y-12" value="&lt;b&gt;Input&lt;br&gt;&lt;/b&gt;" style="rounded=0;whiteSpace=wrap;html=1;strokeWidth=2;" parent="WIyWlLk6GJQsqaUBKTNV-1" vertex="1">
                    <mxGeometry x="380.5" y="170" width="66" height="20" as="geometry"/>
                </mxCell>
                <mxCell id="3" style="edgeStyle=none;html=1;entryX=0.5;entryY=0;entryDx=0;entryDy=0;" edge="1" parent="WIyWlLk6GJQsqaUBKTNV-1" source="IXs5qKIsQq4nm_fLcoOc-0" target="SO8_TiExcs52Kjs4034y-9">
                    <mxGeometry relative="1" as="geometry"/>
                </mxCell>
                <mxCell id="IXs5qKIsQq4nm_fLcoOc-0" value="&lt;h4 style=&quot;line-height: 1.2&quot;&gt;&lt;font face=&quot;Helvetica&quot;&gt;WSOLA算法&lt;/font&gt;&lt;/h4&gt;" style="rounded=1;whiteSpace=wrap;html=1;strokeWidth=2;shadow=0;sketch=0;glass=0;fontFamily=Times New Roman;labelBackgroundColor=none;rotation=0;flipH=0;flipV=0;" parent="WIyWlLk6GJQsqaUBKTNV-1" vertex="1">
                    <mxGeometry x="373.5" y="210" width="80" height="30" as="geometry"/>
                </mxCell>
            </root>
        </mxGraphModel>
    </diagram>
</mxfile>